<?xml version="1.0" encoding="utf-8"?>
<!-- Generator: Adobe Illustrator 22.0.0, SVG Export Plug-In . SVG Version: 6.00 Build 0)  -->
<svg version="1.1" id="Layer_1" xmlns="http://www.w3.org/2000/svg" xmlns:xlink="http://www.w3.org/1999/xlink" x="0px" y="0px"
	 viewBox="0 0 512 512" style="enable-background:new 0 0 512 512;" xml:space="preserve">
<style type="text/css">
	.st0{fill:#2F9DDB;}
	.st1{fill:#F4F4F4;}
	.st2{fill:#1F425E;}
</style>
<g id="_x30_41---Discounted-Flight">
	<path id="Shape" class="st0" d="M503.5,125.4c0,7.5-3,14.6-8.2,19.9c-5.3,5.3-12.4,8.2-19.9,8.2H277.9L232.9,194
		c-1.6,1.4-3.6,2.2-5.7,2.2h-41.4c-3.1,0-5.9-1.6-7.4-4.3c-1.5-2.7-1.5-5.9,0.1-8.6l17.8-29.8H93.9c-23.6,0-42.7-19.1-42.7-42.7
		V25.6c0-4.7,3.8-8.5,8.5-8.5h19.5c3.7,0,6.9,2.3,8.1,5.8l13.1,39.6c1.2,3.5,4.4,5.8,8.1,5.8h292.5v25.6c0,9.4,7.7,17,17.1,17.1
		h81.3C502.1,115.3,503.5,120.3,503.5,125.4L503.5,125.4z"/>
	<path id="Shape_4_" class="st0" d="M297,68.3h-90.5l-28.1-46.8c-1.6-2.6-1.6-5.9-0.1-8.6c1.5-2.7,4.3-4.3,7.4-4.3h41.4
		c2.1,0,4.1,0.8,5.7,2.2L297,68.3z"/>
	<circle id="Oval" class="st1" cx="213.3" cy="324.3" r="17.1"/>
	<circle id="Oval_1_" class="st1" cx="298.7" cy="409.6" r="17.1"/>
	<g>
		<path id="Shape_9_" class="st2" d="M496.6,95.6l-41.3-29.5c-5.8-4.1-12.7-6.3-19.8-6.3h-34.5H300.2L238.6,4.4
			c-3.1-2.8-7.2-4.4-11.4-4.4h-41.4c-6.1,0-11.8,3.3-14.8,8.6s-3,11.9,0.2,17.2l20.4,33.9h-82.9L95.4,20
			c-2.4-6.9-8.9-11.5-16.2-11.5H59.7c-9.4,0-17.1,7.6-17.1,17.1v68.3H8.5c-4.7,0-8.5,3.8-8.5,8.5c0,4.7,3.8,8.5,8.5,8.5h34.1
			c0,28.3,22.9,51.2,51.2,51.2h87.3L171.1,179c-3.2,5.3-3.2,11.8-0.2,17.2c3,5.4,8.7,8.7,14.9,8.7h41.4c4.2,0,8.3-1.6,11.4-4.4
			l8.9-8v31.2c-2.8,1.1-5.4,2.7-7.6,4.9L211.4,257c-1.1,1.1-2.5,1.7-4,1.7h-36.8c-12.6,0-22.8,10.2-22.8,22.8v36.8
			c0,1.5-0.6,3-1.7,4l-28.5,28.5c-8.9,8.9-8.9,23.3,0,32.2l28.5,28.5c1.1,1.1,1.7,2.5,1.7,4v36.8c0,12.6,10.2,22.8,22.8,22.8h36.8
			c1.5,0,3,0.6,4,1.7l28.5,28.5c4.3,4.3,10.1,6.7,16.1,6.7s11.8-2.4,16.1-6.7l28.5-28.5c1.1-1.1,2.5-1.7,4-1.7h36.8
			c12.6,0,22.8-10.2,22.8-22.8v-36.8c0-1.5,0.6-3,1.7-4l28.5-28.5c8.9-8.9,8.9-23.3,0-32.2l-28.5-28.5c-1.1-1.1-1.7-2.5-1.7-4v-36.8
			c0-12.6-10.2-22.8-22.8-22.8h-36.8c-1.5,0-3-0.6-4-1.7l-28.5-28.5c-2.2-2.1-4.7-3.8-7.6-4.8v-46.6l16.7-15h194.1
			c16,0,30.1-10.3,35-25.5S509.6,104.8,496.6,95.6L496.6,95.6z M288.5,269.1c4.3,4.3,10.1,6.7,16.1,6.7h36.8c3.2,0,5.7,2.6,5.7,5.7
			v36.8c0,6,2.4,11.8,6.7,16.1l28.5,28.5c2.2,2.2,2.2,5.9,0,8.1l-28.5,28.5c-4.3,4.3-6.7,10.1-6.7,16.1v36.8c0,3.2-2.6,5.7-5.7,5.7
			h-36.8c-6,0-11.8,2.4-16.1,6.7L260,493.2c-2.3,2.2-5.8,2.2-8.1,0l-28.5-28.5c-4.3-4.3-10.1-6.7-16.1-6.7h-36.8
			c-3.2,0-5.7-2.6-5.7-5.7v-36.8c0-6-2.4-11.8-6.7-16.1L129.7,371c-2.2-2.2-2.2-5.9,0-8.1l28.5-28.5c4.3-4.3,6.7-10.1,6.7-16.1
			v-36.8c0-3.2,2.6-5.7,5.7-5.7h36.8c6,0,11.8-2.4,16.1-6.7l28.5-28.5c2.3-2.2,5.8-2.2,8.1,0L288.5,269.1z M445.4,80l31.4,22.4
			h-58.7c-4.7,0-8.5-3.8-8.5-8.5V76.8h25.9C439.1,76.8,442.5,77.9,445.4,80z M185.8,17.1h41.4l47.5,42.7h-63.3L185.8,17.1z
			 M475.3,145.1H300.2l29.9-26.9c2.3-2,3.4-5.1,2.7-8.1c-0.6-3-2.8-5.5-5.7-6.4c-2.9-0.9-6.1-0.2-8.4,1.8l-91.6,82.2h-41.4
			l43.4-72.4c2.3-4,1-9.2-3-11.6s-9.2-1.2-11.6,2.8l-23.1,38.5H93.9c-18.9,0-34.1-15.3-34.1-34.1h25.6c4.7,0,8.5-3.8,8.5-8.5
			c0-4.7-3.8-8.5-8.5-8.5H59.7V25.6h19.5l13.2,39.7c2.4,6.9,8.9,11.5,16.2,11.5h284v17.1c0,14.1,11.5,25.6,25.6,25.6h75.8
			c2,6,1.1,12.5-2.6,17.6C487.5,142.2,481.6,145.2,475.3,145.1L475.3,145.1z"/>
		<path id="Shape_10_" class="st2" d="M136.5,93.9H128c-4.7,0-8.5,3.8-8.5,8.5c0,4.7,3.8,8.5,8.5,8.5h8.5c4.7,0,8.5-3.8,8.5-8.5
			C145.1,97.7,141.2,93.9,136.5,93.9z"/>
		<path id="Shape_11_" class="st2" d="M179.2,93.9h-8.5c-4.7,0-8.5,3.8-8.5,8.5c0,4.7,3.8,8.5,8.5,8.5h8.5c4.7,0,8.5-3.8,8.5-8.5
			C187.7,97.7,183.9,93.9,179.2,93.9z"/>
		<path id="Shape_12_" class="st2" d="M273.1,93.9h-8.5c-4.7,0-8.5,3.8-8.5,8.5c0,4.7,3.8,8.5,8.5,8.5h8.5c4.7,0,8.5-3.8,8.5-8.5
			C281.6,97.7,277.8,93.9,273.1,93.9z"/>
		<path id="Shape_13_" class="st2" d="M366.9,93.9h-8.5c-4.7,0-8.5,3.8-8.5,8.5c0,4.7,3.8,8.5,8.5,8.5h8.5c4.7,0,8.5-3.8,8.5-8.5
			C375.5,97.7,371.6,93.9,366.9,93.9z"/>
		<path id="Shape_14_" class="st2" d="M198.8,424.2c3.3,3.3,8.7,3.3,12.1,0l102.4-102.4c3.2-3.3,3.2-8.7-0.1-12
			c-3.3-3.3-8.6-3.3-12-0.1L198.8,412.1C195.4,415.4,195.4,420.8,198.8,424.2L198.8,424.2z"/>
		<path id="Shape_15_" class="st2" d="M238.9,324.3c0-14.1-11.5-25.6-25.6-25.6s-25.6,11.5-25.6,25.6c0,14.1,11.5,25.6,25.6,25.6
			S238.9,338.4,238.9,324.3z M204.8,324.3c0-4.7,3.8-8.5,8.5-8.5s8.5,3.8,8.5,8.5s-3.8,8.5-8.5,8.5S204.8,329,204.8,324.3z"/>
		<path id="Shape_16_" class="st2" d="M273.1,409.6c0,14.1,11.5,25.6,25.6,25.6c14.1,0,25.6-11.5,25.6-25.6
			c0-14.1-11.5-25.6-25.6-25.6C284.5,384,273.1,395.5,273.1,409.6z M307.2,409.6c0,4.7-3.8,8.5-8.5,8.5s-8.5-3.8-8.5-8.5
			c0-4.7,3.8-8.5,8.5-8.5S307.2,404.9,307.2,409.6z"/>
	</g>
</g>
</svg>
