<svg id="SvgjsSvg1001" width="288" height="288" xmlns="http://www.w3.org/2000/svg" version="1.1" xmlns:xlink="http://www.w3.org/1999/xlink" xmlns:svgjs="http://svgjs.com/svgjs"><defs id="SvgjsDefs1002"></defs><g id="SvgjsG1008" transform="matrix(1,0,0,1,0,0)"><svg xmlns="http://www.w3.org/2000/svg" width="288" height="288" data-name="Artboard 30" viewBox="0 0 64 64"><path d="M8.445 20.832l3 2a1 1 0 001.051.036l14-8a1 1 0 00.504-.868v-3a1 1 0 00-.553-.895l-2-1a1 1 0 00-.894 0l-3.669 1.835-7.642-1.91a1 1 0 00-1.242.97v3a1 1 0 00.445.832l1.755 1.168-1.344.9-2.537-.845a1 1 0 00-1.319.945v4a1 1 0 00.445.832zm1.555-3.445l1.684.562a1 1 0 00.871-.117l3-2a1 1 0 000-1.664l-2.555-1.703v-1.184l6.758 1.689a1 1 0 00.689-.075l3.553-1.777 1 .5v1.8l-12.96 7.4-2.04-1.353zM40 23h6v10a1 1 0 001.707.707l2.019-2.019 2.379 4.759a1 1 0 001.342.448l4-2a1 1 0 00.448-1.342l-2.443-4.885 2.79-.7a1 1 0 00.3-1.814l-4.965-3.154h1.423a4 4 0 000-8h-15a4 4 0 000 8zm13.758 4.03a1 1 0 00-.653 1.417l2.553 5.106-2.211 1.105-2.547-5.105a1 1 0 00-.735-.54.968.968 0 00-.165-.013 1 1 0 00-.707.293l-1.293 1.293v-8.764l7.5 4.772zm-13.758-10.03h15a2 2 0 010 4h-4.566l-2.9-1.844a1 1 0 00-1.534.844v1h-6a2 2 0 010-4z" fill="#1f425e" class="color000 svgShape"></path><path d="m59 4h-54a4 4 0 0 0 -4 4v37a4 4 0 0 0 4 4h19.979c-.142 3.949-1.1 9-2.979 9a1 1 0 0 0 0 2h20a1 1 0 0 0 0-2c-1.88 0-2.837-5.051-2.979-9h19.979a4 4 0 0 0 4-4v-37a4 4 0 0 0 -4-4zm-54 2h54a2 2 0 0 1 2 2v34h-58v-34a2 2 0 0 1 2-2zm33.944 52h-13.888c1.525-2.535 1.858-6.829 1.927-9h10.034c.069 2.171.402 6.465 1.927 9zm20.056-11h-54a2 2 0 0 1 -2-2v-1h58v1a2 2 0 0 1 -2 2z" fill="#1f425e" class="color000 svgShape"></path><path d="M36 10h23v2h-23zM6 25h24v2h-24zM6 29h24v2h-24zM6 37h24v2h-24zM6 33h24v2h-24zM32 8h2v31h-2z" fill="#1f425e" class="color000 svgShape"></path></svg></g></svg>