<?xml version="1.0" encoding="utf-8"?>
<!-- Generator: Adobe Illustrator 22.0.0, SVG Export Plug-In . SVG Version: 6.00 Build 0)  -->
<svg version="1.1" id="Layer_1" xmlns="http://www.w3.org/2000/svg" xmlns:xlink="http://www.w3.org/1999/xlink" x="0px" y="0px"
	 viewBox="0 0 512 512" style="enable-background:new 0 0 512 512;" xml:space="preserve">
<style type="text/css">
	.st0{fill:none;stroke:#000000;stroke-width:2;stroke-linecap:round;stroke-linejoin:round;}
	.st1{fill:#2F9DDB;}
	.st2{fill:#1F425E;}
	.st3{fill:#FFFFFF;}
</style>
<path id="Shape_7_" class="st0" d="M217.8,119.9V91.2c0-5.3,4.3-9.5,9.5-9.5h57.3c5.3,0,9.5,4.3,9.5,9.5v28.6"/>
<path id="Shape_8_" class="st1" d="M294.2,186.7H279l-16.3-16.3c-3.7-3.6-9.7-3.6-13.4,0.1s-3.7,9.6-0.1,13.4l2.8,2.8h-18.8
	l-6.8-13.8c-2.3-4.7-8.1-6.6-12.9-4.3c-4.7,2.3-6.6,8.1-4.3,12.9l3.5,6.9c-2.8,1.7-4.5,4.7-4.5,7.8c0,5.3,4.3,9.5,9.5,9.5H252
	l-2.8,2.8c-2.5,2.3-3.5,5.9-2.6,9.3s3.5,5.9,6.8,6.8c3.4,0.9,6.9-0.1,9.3-2.6l16.3-16.3h15.1c5.3,0,9.5-4.3,9.5-9.5
	S299.4,186.7,294.2,186.7L294.2,186.7z"/>
<path id="Shape_14_" class="st2" d="M235.6,329h-76.8c-4.7,0-8.5-3.8-8.5-8.5s3.8-8.5,8.5-8.5h76.8c4.7,0,8.5,3.8,8.5,8.5
	C244.2,325.2,240.3,329,235.6,329z"/>
<path id="Shape_18_" class="st2" d="M136.5,512h238.9c18.9,0,34.1-15.3,34.1-34.1V34.1c0-18.9-15.3-34.1-34.1-34.1H136.5
	c-18.9,0-34.1,15.3-34.1,34.1v443.7C102.4,496.7,117.7,512,136.5,512z M375.5,494.9h-239c-9.4,0-17.1-7.6-17.1-17.1v-13.3
	c5.2,3.1,11.1,4.7,17.1,4.7h238.9c6,0,11.9-1.7,17.1-4.7v13.3C392.5,487.3,384.9,494.9,375.5,494.9z M321.6,17.1l-10.9,11.7
	c-3.2,3.4-7.7,5.4-12.4,5.4h-84.5c-4.7,0-9.2-2-12.5-5.4l-10.9-11.7C190.4,17.1,321.6,17.1,321.6,17.1z M119.5,34.1
	c0-9.4,7.6-17.1,17.1-17.1H167l21.9,23.3c6.5,6.9,15.5,10.8,24.9,10.8h84.5c9.4,0,18.4-3.9,24.9-10.8L345,17.1h30.4
	c9.4,0,17.1,7.6,17.1,17.1v401.1c0,9.4-7.6,17.1-17.1,17.1H136.5c-9.4,0-17.1-7.6-17.1-17.1L119.5,34.1L119.5,34.1z"/>
<path id="Shape_19_" class="st2" d="M189.2,272.6h133.7c15.8,0,28.6-12.9,28.6-28.6V138.9c0-15.8-12.9-28.6-28.6-28.6h-19.1v-19
	c0-10.5-8.5-19.1-19.1-19.1h-57.3c-10.5,0-19.1,8.5-19.1,19.1v19.1h-19.1c-15.8,0-28.6,12.9-28.6,28.6v105.1
	C160.6,259.7,173.3,272.6,189.2,272.6z M227.4,91.2h57.3v19.1h-57.3L227.4,91.2L227.4,91.2z M179.6,138.9c0-5.3,4.3-9.5,9.5-9.5h9.5
	v9.5c0,5.3,4.3,9.5,9.5,9.5s9.5-4.3,9.5-9.5v-9.5H294v9.5c0,5.3,4.3,9.5,9.5,9.5c5.3,0,9.5-4.3,9.5-9.5v-9.5h9.5
	c5.3,0,9.5,4.3,9.5,9.5v105.1c0,5.3-4.3,9.5-9.5,9.5H189.2c-5.3,0-9.5-4.3-9.5-9.5V138.9H179.6z"/>
<g>
	<path class="st2" d="M326.7,299.2c12.8-10.4,29.7-11,37.5-1.2c7.9,9.8,3.9,26-9.1,36.4c-12.8,10.4-29.7,11-37.5,1.2
		C309.8,326,313.8,309.6,326.7,299.2z M323.4,295.6c15.9-13.2,38.1-12.7,49.5,0.9c11.3,13.8,7.6,35.6-8.4,48.8
		c-9.6,7.9-21.4,10.8-31.6,9.1c3.4,0.2,7.3-0.2,11.3-1.2c7.3-1.9,6.8-9.3-1.2-6.8c-24.5,7.7-39.6-12.1-31.6-34.5l0,0
		C313.8,305.9,317.9,300.3,323.4,295.6z"/>
	
		<ellipse transform="matrix(0.8113 -0.5847 0.5847 0.8113 -120.3583 260.5891)" class="st3" cx="343.5" cy="316.7" rx="29.9" ry="21.8"/>
	<path class="st2" d="M333.2,305.7L333.2,305.7C333.2,305.7,333.3,305.7,333.2,305.7c0.2-0.2,0.3-0.2,0.5-0.3c3.6-2.2,0.8-7-2.6-4.6
		c-1.4,1.1-2.8,2.2-3.9,3.4c-3.7,3.9-6.8,8.7-8,14.2c-1.1,4.3-1.1,9.1,0.9,13.2c0.5,1.1,1.1,2,1.9,2.9c0.3,0.3,0.6,0.8,1.1,1.1
		c-2.6-5.9-2.3-13.2,0.9-19.5l0,0c1.1-2.3,2.6-4.5,4.5-6.3C329.6,308.2,331.5,306.8,333.2,305.7z"/>
</g>
<path id="Shape_1_" class="st2" d="M235.6,407.7h-76.8c-4.7,0-8.5-3.8-8.5-8.5s3.8-8.5,8.5-8.5h76.8c4.7,0,8.5,3.8,8.5,8.5
	C244.2,403.9,240.3,407.7,235.6,407.7z"/>
<g>
	<path class="st2" d="M326.7,377.9c12.8-10.4,29.7-11,37.5-1.2c7.9,9.8,3.9,26-9.1,36.4c-12.8,10.4-29.7,11-37.5,1.2
		C309.8,404.6,313.8,388.2,326.7,377.9z M323.4,374.3c15.9-13.2,38.1-12.7,49.5,0.9c11.3,13.8,7.6,35.6-8.4,48.8
		c-9.6,7.9-21.4,10.8-31.6,9.1c3.4,0.2,7.3-0.2,11.3-1.2c7.3-1.9,6.8-9.3-1.2-6.8c-24.5,7.7-39.6-12.1-31.6-34.5l0,0
		C313.8,384.5,317.9,379,323.4,374.3z"/>
	
		<ellipse transform="matrix(0.8113 -0.5847 0.5847 0.8113 -166.3528 275.4361)" class="st3" cx="343.5" cy="395.4" rx="29.9" ry="21.8"/>
	<path class="st2" d="M333.2,384.4L333.2,384.4C333.2,384.4,333.3,384.4,333.2,384.4c0.2-0.2,0.3-0.2,0.5-0.3c3.6-2.2,0.8-7-2.6-4.6
		c-1.4,1.1-2.8,2.2-3.9,3.4c-3.7,3.9-6.8,8.7-8,14.2c-1.1,4.3-1.1,9.1,0.9,13.2c0.5,1.1,1.1,2,1.9,2.9c0.3,0.3,0.6,0.8,1.1,1.1
		c-2.6-5.9-2.3-13.2,0.9-19.5l0,0c1.1-2.3,2.6-4.5,4.5-6.3C329.6,386.8,331.5,385.5,333.2,384.4z"/>
</g>
</svg>
