<svg width="17" height="18" viewBox="0 0 17 18" fill="none" xmlns="http://www.w3.org/2000/svg">
<g id="vuesax/outline/airplane">
<g id="airplane">
<path id="Vector" d="M1.8703 6.59814C1.87285 6.4515 1.90218 6.29865 1.96461 6.15972C2.10338 5.84875 2.36751 5.61331 2.69599 5.51235L3.58096 5.23437C3.98322 5.10802 4.48105 5.2367 4.7759 5.53521L6.26934 7.07476C6.28899 7.09511 6.36185 7.12305 6.39518 7.12363L8.04159 7.15228L6.78136 4.08989C6.61513 3.68027 6.64232 3.26734 6.8544 2.95765C7.06649 2.64796 7.44302 2.46782 7.87628 2.47536L8.73615 2.49033C9.38939 2.50169 10.0812 2.98047 10.3041 3.57777L11.8011 7.21104L13.6942 7.24398C14.5007 7.25802 15.4174 7.84073 15.7781 8.56711C15.9454 8.91674 15.9385 9.31668 15.7592 9.65362C15.3733 10.3737 14.4436 10.9242 13.6371 10.9102L11.744 10.8773L10.1211 14.4762C9.85752 15.0651 9.16973 15.5065 8.50983 15.495L7.64996 15.4801C7.21003 15.4724 6.84655 15.286 6.64548 14.9625C6.44441 14.639 6.43149 14.232 6.60521 13.8283L7.97124 10.8116L6.32483 10.783C6.29816 10.7825 6.23104 10.808 6.2107 10.8276L4.65781 12.3208C4.35942 12.609 3.84408 12.7201 3.45312 12.5799L2.57836 12.2713C2.25371 12.1523 1.99793 11.9078 1.87685 11.5857C1.75566 11.2702 1.77502 10.9238 1.92688 10.6264C1.94746 10.5934 1.96804 10.5604 1.99528 10.5276L3.32878 8.99722C3.37637 8.94471 3.37156 8.83794 3.33237 8.79058L2.05293 7.21475C2.02673 7.18762 2.00732 7.15395 1.99457 7.12039C1.90403 6.95879 1.86717 6.77812 1.8703 6.59814ZM9.13117 7.37794C9.1285 7.53125 9.08595 7.6772 8.99709 7.80234C8.83972 8.03297 8.57744 8.16176 8.27082 8.15642L6.37111 8.12336C6.08449 8.11837 5.74697 7.97248 5.55049 7.76903L4.05705 6.22947C4.02418 6.20223 3.92466 6.17383 3.88444 6.18646L2.9928 6.46432C2.9258 6.48316 2.89832 6.52936 2.88453 6.55579C2.87751 6.57567 2.8636 6.60876 2.87624 6.64899L4.11006 8.16402C4.4627 8.59022 4.45121 9.25012 4.08396 9.66379L2.80495 11.1284C2.79747 11.175 2.80356 11.2084 2.80987 11.2285C2.82274 11.2554 2.84847 11.3092 2.91478 11.3304L3.78955 11.639C3.83597 11.6531 3.93642 11.6282 3.96355 11.602L5.50965 10.1153C5.69977 9.91862 6.04894 9.778 6.34223 9.78311L8.24194 9.81617C8.54189 9.82139 8.79965 9.95256 8.94902 10.1819C9.09838 10.4112 9.11327 10.7048 8.98842 10.9827L7.51823 14.2376C7.47649 14.3369 7.47533 14.4035 7.48832 14.4238C7.5013 14.444 7.56083 14.4717 7.66748 14.4735L8.52735 14.4885C8.78064 14.4929 9.11097 14.2853 9.20823 14.0603L10.8794 10.3688C11.0111 10.0777 11.3347 9.87666 11.6546 9.88223L13.6543 9.91703C14.0943 9.92469 14.6669 9.58793 14.8738 9.19147C14.9014 9.13861 14.9026 9.07195 14.8769 9.0115C14.6837 8.62141 14.1099 8.25804 13.6767 8.2505L11.677 8.2157C11.3637 8.21025 11.0407 7.99793 10.9191 7.70243L9.37743 3.95504C9.28817 3.72012 8.96527 3.50113 8.71864 3.49684L7.85877 3.48188C7.75212 3.48002 7.69166 3.50564 7.67798 3.5254C7.6643 3.54517 7.66314 3.61182 7.7014 3.71251L9.05756 7.00994C9.1088 7.13085 9.13325 7.25796 9.13117 7.37794Z" fill="#0C0C0C"/>
</g>
</g>
</svg>
