<svg width="16" height="17" viewBox="0 0 16 17" fill="none" xmlns="http://www.w3.org/2000/svg">
<path d="M11 6.25334C10.7267 6.25334 10.5 6.02667 10.5 5.75334V4.83334C10.5 4.13334 10.2 3.45334 9.68 2.98001C9.15333 2.50001 8.47333 2.28001 7.75333 2.34667C6.55333 2.46001 5.5 3.68667 5.5 4.96667V5.61334C5.5 5.88667 5.27333 6.11334 5 6.11334C4.72667 6.11334 4.5 5.88667 4.5 5.61334V4.96001C4.5 3.16667 5.94667 1.51334 7.66 1.34667C8.66 1.25334 9.62 1.56667 10.3533 2.24001C11.08 2.90001 11.5 3.84667 11.5 4.83334V5.75334C11.5 6.02667 11.2733 6.25334 11 6.25334Z" fill="#ADADAD"/>
<path d="M9.99988 15.6667H5.99988C2.91988 15.6667 2.34655 14.2333 2.19988 12.84L1.69988 8.84666C1.62655 8.12666 1.59988 7.09333 2.29988 6.31999C2.89988 5.65333 3.89321 5.33333 5.33321 5.33333H10.6665C12.1132 5.33333 13.1065 5.65999 13.6999 6.31999C14.3932 7.09333 14.3732 8.12666 14.2999 8.83333L13.7999 12.84C13.6532 14.2333 13.0799 15.6667 9.99988 15.6667ZM5.33321 6.33333C4.20655 6.33333 3.43321 6.55333 3.03988 6.99333C2.71321 7.35333 2.60655 7.90666 2.69321 8.73333L3.19321 12.7267C3.30655 13.7933 3.59988 14.6733 5.99988 14.6733H9.99988C12.3999 14.6733 12.6932 13.8 12.8065 12.74L13.3065 8.73333C13.3932 7.92 13.2865 7.36666 12.9599 6.99999C12.5665 6.55333 11.7932 6.33333 10.6665 6.33333H5.33321Z" fill="#ADADAD"/>
<path d="M10.2798 9.26667C9.90645 9.26667 9.60645 8.96667 9.60645 8.6C9.60645 8.23333 9.90645 7.93333 10.2731 7.93333C10.6398 7.93333 10.9398 8.23333 10.9398 8.6C10.9398 8.96667 10.6464 9.26667 10.2798 9.26667Z" fill="#ADADAD"/>
<path d="M5.61327 9.26667C5.23994 9.26667 4.93994 8.96667 4.93994 8.6C4.93994 8.23333 5.23994 7.93333 5.60661 7.93333C5.97327 7.93333 6.27327 8.23333 6.27327 8.6C6.27327 8.96667 5.97994 9.26667 5.61327 9.26667Z" fill="#ADADAD"/>
</svg>
