<svg width="16" height="17" viewBox="0 0 16 17" fill="none" xmlns="http://www.w3.org/2000/svg">
<path d="M5.72017 15.5334C5.5735 15.5334 5.42017 15.5067 5.28017 15.4467C4.96683 15.3134 4.72683 15.0534 4.62017 14.7267L4.32683 13.8467C4.1935 13.4467 4.3135 12.9467 4.60683 12.6467L6.12017 11.1267C6.14017 11.1067 6.16683 11.0334 6.16683 11V9.35338L3.12683 10.6667C2.72017 10.84 2.30683 10.82 1.9935 10.6134C1.68017 10.4067 1.4935 10.0334 1.4935 9.60005V8.74005C1.4935 8.08671 1.96017 7.38671 2.5535 7.15338L6.16017 5.59338V3.70005C6.16017 2.89338 6.72683 1.96671 7.44683 1.59338C7.7935 1.42005 8.1935 1.42005 8.5335 1.59338C9.26017 1.96671 9.82683 2.88671 9.82683 3.69338V5.58671L13.4535 7.14671C14.0468 7.40005 14.5002 8.08005 14.5002 8.74005V9.60005C14.5002 10.04 14.3202 10.4067 14.0002 10.6134C13.6802 10.82 13.2735 10.84 12.8668 10.6734L9.82683 9.36005V11.0067C9.82683 11.0334 9.8535 11.1 9.8735 11.12L11.3935 12.6467C11.6868 12.94 11.8068 13.4534 11.6735 13.8467L11.3802 14.7267C11.2668 15.0534 11.0268 15.3134 10.7068 15.44C10.3935 15.5667 10.0468 15.5534 9.74683 15.4067C9.7135 15.3867 9.68017 15.3667 9.64683 15.34L8.0935 14.0334C8.04017 13.9867 7.9335 13.9934 7.88683 14.0334L6.3335 15.34C6.30683 15.3667 6.2735 15.3867 6.24017 15.4C6.08017 15.4934 5.90017 15.5334 5.72017 15.5334ZM6.3735 8.26005C6.52683 8.26005 6.6735 8.30005 6.80017 8.38671C7.0335 8.54005 7.16683 8.80005 7.16683 9.10671V11.0067C7.16683 11.2934 7.02683 11.6334 6.82683 11.8334L5.3135 13.3534C5.28683 13.3867 5.26017 13.4867 5.2735 13.5267L5.56683 14.4134C5.58683 14.48 5.6335 14.5067 5.66017 14.52C5.68017 14.5267 5.7135 14.54 5.7535 14.5267L7.24683 13.2667C7.66683 12.9067 8.32683 12.9067 8.74683 13.2667L10.2335 14.52C10.2802 14.5267 10.3135 14.52 10.3335 14.5134C10.3602 14.5 10.4135 14.4734 10.4335 14.4067L10.7268 13.5267C10.7402 13.48 10.7135 13.38 10.6868 13.3534L9.1735 11.8334C8.9735 11.6467 8.82683 11.3 8.82683 11.0067V9.10671C8.82683 8.80671 8.9535 8.54671 9.18017 8.39338C9.40683 8.24005 9.70017 8.22005 9.98017 8.34005L13.2602 9.75338C13.3602 9.79338 13.4268 9.79338 13.4468 9.78005C13.4668 9.76671 13.4935 9.70671 13.4935 9.60005V8.74005C13.4935 8.48671 13.2802 8.16005 13.0535 8.06671L9.3335 6.46005C9.04017 6.33338 8.8335 6.01338 8.8335 5.69338V3.69338C8.8335 3.25338 8.48683 2.68671 8.08683 2.48671C8.0335 2.46005 7.96683 2.46005 7.90683 2.48671C7.52017 2.68671 7.16683 3.26671 7.16683 3.70005V5.70005C7.16683 6.01338 6.96017 6.34005 6.66683 6.46671L2.94683 8.07338C2.7135 8.16671 2.50017 8.49338 2.50017 8.74005V9.60005C2.50017 9.70671 2.52683 9.76671 2.54683 9.78005C2.56683 9.79338 2.6335 9.79338 2.7335 9.75338L6.00683 8.34005C6.12683 8.28671 6.2535 8.26005 6.3735 8.26005Z" fill="#ADADAD"/>
</svg>
