<svg width="25" height="25" viewBox="0 0 25 25" fill="none" xmlns="http://www.w3.org/2000/svg">
<path d="M11.0185 4.4001L8.99716 9.06521L8.55464 10.1041C8.47425 10.264 8.26391 10.4034 8.08392 10.403L5.02392 10.3956C4.06393 10.3933 2.92221 11.1005 2.48013 11.9594C2.3294 12.2591 2.32853 12.6191 2.47781 12.9194C2.91575 13.7705 4.06402 14.4833 5.02402 14.4856L8.08401 14.493C8.26401 14.4935 8.47367 14.634 8.55328 14.7942L10.9895 20.5001C11.2479 21.1307 12.0367 21.6426 12.7167 21.6443L14.0367 21.6475C14.8867 21.6495 15.3083 21.0105 14.9702 20.2197L12.8223 15.2045C12.6532 14.8141 12.864 14.4946 13.294 14.4956L14.404 14.4983L16.204 14.5027C16.434 14.5032 16.7637 14.634 16.9233 14.7944L19.2477 17.1201C19.4871 17.3606 19.9568 17.4718 20.2971 17.3626L21.6582 16.9159C22.2486 16.7373 22.5302 16.068 22.2516 15.5173L20.2573 13.1325C19.9482 12.7717 19.9496 12.1817 20.2605 11.8225L22.2663 9.44735C22.5376 8.898 22.2692 8.22735 21.6797 8.02592L20.3208 7.57263C19.9911 7.46183 19.5108 7.57067 19.2702 7.81009L16.9346 10.1244C16.7742 10.294 16.4439 10.4233 16.2139 10.4227L13.3039 10.4156C12.8739 10.4146 12.6747 10.1041 12.8356 9.70451L15.0077 4.69976C15.3497 3.91058 14.9312 3.26957 14.0812 3.26751L12.7612 3.26431C12.0812 3.26266 11.29 3.77075 11.0185 4.4001Z" fill="#606060"/>
</svg>
