<svg width="24" height="24" viewBox="0 0 24 24" fill="none" xmlns="http://www.w3.org/2000/svg">
<path d="M10.6301 3.95L8.62006 8.62L8.18006 9.66C8.10006 9.82 7.89006 9.96 7.71006 9.96H4.65006C3.69006 9.96 2.55006 10.67 2.11006 11.53C1.96006 11.83 1.96006 12.19 2.11006 12.49C2.55006 13.34 3.70006 14.05 4.66006 14.05H7.72006C7.90006 14.05 8.11006 14.19 8.19006 14.35L10.6401 20.05C10.9001 20.68 11.6901 21.19 12.3701 21.19H13.6901C14.5401 21.19 14.9601 20.55 14.6201 19.76L12.4601 14.75C12.2901 14.36 12.5001 14.04 12.9301 14.04H14.0401H15.8401C16.0701 14.04 16.4001 14.17 16.5601 14.33L18.8901 16.65C19.1301 16.89 19.6001 17 19.9401 16.89L21.3001 16.44C21.8901 16.26 22.1701 15.59 21.8901 15.04L19.8901 12.66C19.5801 12.3 19.5801 11.71 19.8901 11.35L21.8901 8.97C22.1601 8.42 21.8901 7.75 21.3001 7.55L19.9401 7.1C19.6101 6.99 19.1301 7.1 18.8901 7.34L16.5601 9.66C16.4001 9.83 16.0701 9.96 15.8401 9.96H12.9301C12.5001 9.96 12.3001 9.65 12.4601 9.25L14.6201 4.24C14.9601 3.45 14.5401 2.81 13.6901 2.81H12.3701C11.6901 2.81 10.9001 3.32 10.6301 3.95Z" fill="#1D91CC"/>
</svg>
