<svg xmlns="http://www.w3.org/2000/svg" width="17" height="16" viewBox="0 0 17 16" fill="none">
  <path d="M10.4997 15.1666H6.49967C2.87967 15.1666 1.33301 13.62 1.33301 9.99998V5.99998C1.33301 2.37998 2.87967 0.833313 6.49967 0.833313H10.4997C14.1197 0.833313 15.6663 2.37998 15.6663 5.99998V9.99998C15.6663 13.62 14.1197 15.1666 10.4997 15.1666ZM6.49967 1.83331C3.42634 1.83331 2.33301 2.92665 2.33301 5.99998V9.99998C2.33301 13.0733 3.42634 14.1666 6.49967 14.1666H10.4997C13.573 14.1666 14.6663 13.0733 14.6663 9.99998V5.99998C14.6663 2.92665 13.573 1.83331 10.4997 1.83331H6.49967Z" fill="#1D91CC"/>
  <path d="M9.77993 10.7533H6.49993C6.2266 10.7533 5.99993 10.5267 5.99993 10.2533C5.99993 9.98 6.2266 9.75333 6.49993 9.75333H9.77993C10.6333 9.75333 11.3333 9.06 11.3333 8.2C11.3333 7.34 10.6399 6.64667 9.77993 6.64667H5.2666C4.99327 6.64667 4.7666 6.42 4.7666 6.14667C4.7666 5.87333 4.99327 5.64667 5.2666 5.64667H9.77993C11.1866 5.64667 12.3333 6.79334 12.3333 8.2C12.3333 9.60667 11.1866 10.7533 9.77993 10.7533Z" fill="#1D91CC"/>
  <path d="M6.21297 7.67998C6.0863 7.67998 5.95964 7.63332 5.85964 7.53332L4.81297 6.48665C4.61964 6.29332 4.61964 5.97332 4.81297 5.77998L5.85964 4.73332C6.05297 4.53998 6.37297 4.53998 6.5663 4.73332C6.75963 4.92665 6.75963 5.24665 6.5663 5.43999L5.87297 6.13332L6.5663 6.82665C6.75963 7.01998 6.75963 7.33999 6.5663 7.53332C6.47297 7.62665 6.3463 7.67998 6.21297 7.67998Z" fill="white"/>
</svg>