<svg width="16" height="16" viewBox="0 0 16 16" fill="none" xmlns="http://www.w3.org/2000/svg">
<g id="vuesax/outline/card-tick">
<g id="card-tick">
<path id="Vector" d="M9.00065 6.16669H1.33398C1.06065 6.16669 0.833984 5.94002 0.833984 5.66669C0.833984 5.39335 1.06065 5.16669 1.33398 5.16669H9.00065C9.27398 5.16669 9.50065 5.39335 9.50065 5.66669C9.50065 5.94002 9.27398 6.16669 9.00065 6.16669Z" fill="#0C0C0C"/>
<path id="Vector_2" d="M5.33333 11.5H4C3.72667 11.5 3.5 11.2733 3.5 11C3.5 10.7267 3.72667 10.5 4 10.5H5.33333C5.60667 10.5 5.83333 10.7267 5.83333 11C5.83333 11.2733 5.60667 11.5 5.33333 11.5Z" fill="#0C0C0C"/>
<path id="Vector_3" d="M9.66667 11.5H7C6.72667 11.5 6.5 11.2733 6.5 11C6.5 10.7267 6.72667 10.5 7 10.5H9.66667C9.94 10.5 10.1667 10.7267 10.1667 11C10.1667 11.2733 9.94 11.5 9.66667 11.5Z" fill="#0C0C0C"/>
<path id="Vector_4" d="M11.7073 14.1666H4.29398C1.64065 14.1666 0.833984 13.3666 0.833984 10.74V5.25998C0.833984 2.63331 1.64065 1.83331 4.29398 1.83331H9.00065C9.27398 1.83331 9.50065 2.05998 9.50065 2.33331C9.50065 2.60665 9.27398 2.83331 9.00065 2.83331H4.29398C2.20065 2.83331 1.83398 3.19331 1.83398 5.25998V10.7333C1.83398 12.8 2.20065 13.16 4.29398 13.16H11.7007C13.794 13.16 14.1607 12.8 14.1607 10.7333V7.34665C14.1607 7.07331 14.3873 6.84665 14.6607 6.84665C14.934 6.84665 15.1607 7.07331 15.1607 7.34665V10.7333C15.1673 13.3666 14.3607 14.1666 11.7073 14.1666Z" fill="#0C0C0C"/>
<path id="Vector_5" d="M12.0003 5.50002C11.8736 5.50002 11.747 5.45336 11.647 5.35336L10.647 4.35336C10.4536 4.16002 10.4536 3.84002 10.647 3.64669C10.8403 3.45336 11.1603 3.45336 11.3536 3.64669L12.0003 4.29336L14.3136 1.98002C14.507 1.78669 14.827 1.78669 15.0203 1.98002C15.2136 2.17336 15.2136 2.49336 15.0203 2.68669L12.3536 5.35336C12.2536 5.45336 12.127 5.50002 12.0003 5.50002Z" fill="#0C0C0C"/>
</g>
</g>
</svg>
