<svg width="16" height="16" viewBox="0 0 16 16" fill="none" xmlns="http://www.w3.org/2000/svg">
<g id="iconoir:pharmacy-cross-square">
<g id="Group">
<path id="Vector" d="M14 5.33333V10.6667C14 11.5507 13.6488 12.3986 13.0237 13.0237C12.3986 13.6488 11.5507 14 10.6667 14H5.33333C4.44928 14 3.60143 13.6488 2.97631 13.0237C2.35119 12.3986 2 11.5507 2 10.6667V5.33333C2 4.44928 2.35119 3.60143 2.97631 2.97631C3.60143 2.35119 4.44928 2 5.33333 2H10.6667C11.5507 2 12.3986 2.35119 13.0237 2.97631C13.6488 3.60143 14 4.44928 14 5.33333Z" stroke="#0C0C0C" stroke-linecap="round" stroke-linejoin="round"/>
<path id="Vector_2" d="M9.26667 12H6.73333C6.62725 12 6.5255 11.9579 6.45049 11.8828C6.37548 11.8078 6.33333 11.7061 6.33333 11.6V10.0667C6.33333 9.96058 6.29119 9.85884 6.21618 9.78382C6.14116 9.70881 6.03942 9.66667 5.93333 9.66667H4.4C4.29391 9.66667 4.19217 9.62452 4.11716 9.54951C4.04214 9.4745 4 9.37275 4 9.26667V6.73333C4 6.62725 4.04214 6.5255 4.11716 6.45049C4.19217 6.37548 4.29391 6.33333 4.4 6.33333H5.93333C6.03942 6.33333 6.14116 6.29119 6.21618 6.21618C6.29119 6.14116 6.33333 6.03942 6.33333 5.93333V4.4C6.33333 4.29391 6.37548 4.19217 6.45049 4.11716C6.5255 4.04214 6.62725 4 6.73333 4H9.26667C9.37275 4 9.4745 4.04214 9.54951 4.11716C9.62452 4.19217 9.66667 4.29391 9.66667 4.4V5.93333C9.66667 6.03942 9.70881 6.14116 9.78382 6.21618C9.85884 6.29119 9.96058 6.33333 10.0667 6.33333H11.6C11.7061 6.33333 11.8078 6.37548 11.8828 6.45049C11.9579 6.5255 12 6.62725 12 6.73333V9.26667C12 9.37275 11.9579 9.4745 11.8828 9.54951C11.8078 9.62452 11.7061 9.66667 11.6 9.66667H10.0667C9.96058 9.66667 9.85884 9.70881 9.78382 9.78382C9.70881 9.85884 9.66667 9.96058 9.66667 10.0667V11.6C9.66667 11.7061 9.62452 11.8078 9.54951 11.8828C9.4745 11.9579 9.37275 12 9.26667 12Z" stroke="#0C0C0C"/>
</g>
</g>
</svg>
