<svg width="32" height="32" viewBox="0 0 32 32" fill="none" xmlns="http://www.w3.org/2000/svg">
<g id="vuesax/outline/message">
<g id="message">
<path id="Vector" d="M16.0013 30.4133C15.0813 30.4133 14.2146 29.9467 13.6013 29.1333L11.6013 26.4667C11.5613 26.4133 11.4013 26.3467 11.3346 26.3333H10.668C5.10797 26.3333 1.66797 24.8267 1.66797 17.3333V10.6667C1.66797 4.77333 4.77464 1.66667 10.668 1.66667H21.3346C27.228 1.66667 30.3346 4.77333 30.3346 10.6667V17.3333C30.3346 23.2267 27.228 26.3333 21.3346 26.3333H20.668C20.5613 26.3333 20.468 26.3867 20.4013 26.4667L18.4013 29.1333C17.788 29.9467 16.9213 30.4133 16.0013 30.4133ZM10.668 3.66667C5.89464 3.66667 3.66797 5.89333 3.66797 10.6667V17.3333C3.66797 23.36 5.73464 24.3333 10.668 24.3333H11.3346C12.0146 24.3333 12.788 24.72 13.2013 25.2667L15.2013 27.9333C15.668 28.5467 16.3346 28.5467 16.8013 27.9333L18.8013 25.2667C19.2413 24.68 19.9346 24.3333 20.668 24.3333H21.3346C26.108 24.3333 28.3346 22.1067 28.3346 17.3333V10.6667C28.3346 5.89333 26.108 3.66667 21.3346 3.66667H10.668Z" fill="#1D91CC"/>
<path id="Vector_2" d="M16.0013 16C15.2546 16 14.668 15.4 14.668 14.6667C14.668 13.9333 15.268 13.3333 16.0013 13.3333C16.7346 13.3333 17.3346 13.9333 17.3346 14.6667C17.3346 15.4 16.748 16 16.0013 16Z" fill="#1D91CC"/>
<path id="Vector_3" d="M21.3333 16C20.5867 16 20 15.4 20 14.6667C20 13.9333 20.6 13.3333 21.3333 13.3333C22.0667 13.3333 22.6667 13.9333 22.6667 14.6667C22.6667 15.4 22.08 16 21.3333 16Z" fill="#1D91CC"/>
<path id="Vector_4" d="M10.6654 16C9.9187 16 9.33203 15.4 9.33203 14.6667C9.33203 13.9333 9.93203 13.3333 10.6654 13.3333C11.3987 13.3333 11.9987 13.9333 11.9987 14.6667C11.9987 15.4 11.412 16 10.6654 16Z" fill="#1D91CC"/>
</g>
</g>
</svg>
