<svg xmlns="http://www.w3.org/2000/svg" width="41" height="40" viewBox="0 0 41 40" fill="none">
  <path d="M25.334 37.9167H15.6673C14.184 37.9167 12.284 37.1333 11.2506 36.0833L4.41733 29.25C3.36733 28.2 2.58398 26.3 2.58398 24.8333V15.1667C2.58398 13.6833 3.36733 11.7834 4.41733 10.75L11.2506 3.91668C12.3006 2.86668 14.2007 2.08334 15.6673 2.08334H25.334C26.8173 2.08334 28.7173 2.86668 29.7507 3.91668L36.584 10.75C37.634 11.8 38.4173 13.7 38.4173 15.1667V24.8333C38.4173 26.3167 37.634 28.2167 36.584 29.25L29.7507 36.0833C28.7007 37.1333 26.8173 37.9167 25.334 37.9167ZM15.6673 4.58334C14.8507 4.58334 13.584 5.10001 13.0173 5.68334L6.18399 12.5167C5.61732 13.1 5.08398 14.35 5.08398 15.1667V24.8333C5.08398 25.65 5.60066 26.9167 6.18399 27.4833L13.0173 34.3167C13.6006 34.8833 14.8507 35.4167 15.6673 35.4167H25.334C26.1506 35.4167 27.4173 34.9 27.984 34.3167L34.8173 27.4833C35.384 26.9 35.9173 25.65 35.9173 24.8333V15.1667C35.9173 14.35 35.4006 13.0834 34.8173 12.5167L27.984 5.68334C27.4007 5.11668 26.1506 4.58334 25.334 4.58334H15.6673Z" fill="#C30000"/>
  <path d="M14.6658 27.0833C14.3491 27.0833 14.0324 26.9667 13.7824 26.7167C13.2991 26.2333 13.2991 25.4333 13.7824 24.95L25.4491 13.2833C25.9324 12.8 26.7324 12.8 27.2158 13.2833C27.6991 13.7667 27.6991 14.5667 27.2158 15.05L15.5491 26.7167C15.2991 26.9667 14.9824 27.0833 14.6658 27.0833Z" fill="#C30000"/>
  <path d="M26.3324 27.0833C26.0158 27.0833 25.6991 26.9667 25.4491 26.7167L13.7824 15.05C13.2991 14.5667 13.2991 13.7667 13.7824 13.2833C14.2658 12.8 15.0658 12.8 15.5491 13.2833L27.2158 24.95C27.6991 25.4333 27.6991 26.2333 27.2158 26.7167C26.9658 26.9667 26.6491 27.0833 26.3324 27.0833Z" fill="#C30000"/>
</svg>