<svg xmlns="http://www.w3.org/2000/svg" width="40" height="40" viewBox="0 0 40 40" fill="none">
  <path d="M19.9997 37.9167C10.1163 37.9167 2.08301 29.8833 2.08301 20C2.08301 10.1167 10.1163 2.08334 19.9997 2.08334C29.883 2.08334 37.9163 10.1167 37.9163 20C37.9163 29.8833 29.883 37.9167 19.9997 37.9167ZM19.9997 4.58334C11.4997 4.58334 4.58301 11.5 4.58301 20C4.58301 28.5 11.4997 35.4167 19.9997 35.4167C28.4997 35.4167 35.4163 28.5 35.4163 20C35.4163 11.5 28.4997 4.58334 19.9997 4.58334Z" fill="#00966D"/>
  <path d="M17.6334 25.9667C17.3001 25.9667 16.9834 25.8333 16.7501 25.6L12.0334 20.8833C11.5501 20.4 11.5501 19.6 12.0334 19.1167C12.5167 18.6333 13.3167 18.6333 13.8001 19.1167L17.6334 22.95L26.2001 14.3833C26.6834 13.9 27.4834 13.9 27.9667 14.3833C28.4501 14.8667 28.4501 15.6667 27.9667 16.15L18.5167 25.6C18.2834 25.8333 17.9667 25.9667 17.6334 25.9667Z" fill="#00966D"/>
</svg>