<svg width="16" height="16" viewBox="0 0 16 16" fill="none" xmlns="http://www.w3.org/2000/svg">
<g id="tabler:report-medical">
<g id="Group">
<path id="Vector" d="M6.0026 3.33331H4.66927C4.31565 3.33331 3.97651 3.47379 3.72646 3.72384C3.47641 3.97389 3.33594 4.31302 3.33594 4.66665V12.6666C3.33594 13.0203 3.47641 13.3594 3.72646 13.6095C3.97651 13.8595 4.31565 14 4.66927 14H11.3359C11.6896 14 12.0287 13.8595 12.2787 13.6095C12.5288 13.3594 12.6693 13.0203 12.6693 12.6666V4.66665C12.6693 4.31302 12.5288 3.97389 12.2787 3.72384C12.0287 3.47379 11.6896 3.33331 11.3359 3.33331H10.0026" stroke="#0C0C0C" stroke-linecap="round" stroke-linejoin="round"/>
<path id="Vector_2" d="M6.66667 9.33333H9.33333M8 8V10.6667M6 3.33333C6 2.97971 6.14048 2.64057 6.39052 2.39052C6.64057 2.14048 6.97971 2 7.33333 2H8.66667C9.02029 2 9.35943 2.14048 9.60948 2.39052C9.85952 2.64057 10 2.97971 10 3.33333C10 3.68696 9.85952 4.02609 9.60948 4.27614C9.35943 4.52619 9.02029 4.66667 8.66667 4.66667H7.33333C6.97971 4.66667 6.64057 4.52619 6.39052 4.27614C6.14048 4.02609 6 3.68696 6 3.33333Z" stroke="#0C0C0C" stroke-linecap="round" stroke-linejoin="round"/>
</g>
</g>
</svg>
