<svg width="16" height="16" viewBox="0 0 16 16" fill="none" xmlns="http://www.w3.org/2000/svg">
<g id="tabler:dental">
<path id="Vector" d="M7.9974 3.66675C7.2814 3.27608 6.2754 2.66675 5.33073 2.66675C3.93073 2.66675 2.66406 3.49808 2.66406 6.00008C2.66406 9.26608 3.36806 11.6067 4.44473 13.0247C4.82673 13.5287 5.75806 13.3721 6.15606 12.8674C6.4214 12.5307 6.70206 11.9081 6.9974 11.0001C7.19206 10.4861 7.59206 9.99741 7.9974 10.0001C8.39873 10.0001 8.80406 10.4914 8.9974 11.0001C9.29273 11.9081 9.5734 12.5301 9.83873 12.8667C10.2367 13.3727 11.1721 13.5287 11.5501 13.0247C12.6267 11.6067 13.3307 9.26675 13.3307 6.00008C13.3307 3.50675 12.0587 2.66675 10.6641 2.66675C9.7154 2.66675 8.7174 3.27408 7.9974 3.66675ZM7.9974 3.66675L9.9974 4.66675" stroke="#0C0C0C" stroke-linecap="round" stroke-linejoin="round"/>
</g>
</svg>
