<svg width="16" height="17" viewBox="0 0 16 17" fill="none" xmlns="http://www.w3.org/2000/svg">
<path d="M7.99984 15.6667C4.5065 15.6667 1.6665 12.8267 1.6665 9.33333C1.6665 5.84 4.5065 3 7.99984 3C11.4932 3 14.3332 5.84 14.3332 9.33333C14.3332 12.8267 11.4932 15.6667 7.99984 15.6667ZM7.99984 4C5.05984 4 2.6665 6.39333 2.6665 9.33333C2.6665 12.2733 5.05984 14.6667 7.99984 14.6667C10.9398 14.6667 13.3332 12.2733 13.3332 9.33333C13.3332 6.39333 10.9398 4 7.99984 4Z" fill="#868686"/>
<path d="M8 9.66667C7.72667 9.66667 7.5 9.44 7.5 9.16667V5.83334C7.5 5.56 7.72667 5.33334 8 5.33334C8.27333 5.33334 8.5 5.56 8.5 5.83334V9.16667C8.5 9.44 8.27333 9.66667 8 9.66667Z" fill="#868686"/>
<path d="M10 2.33334H6C5.72667 2.33334 5.5 2.10667 5.5 1.83334C5.5 1.56 5.72667 1.33334 6 1.33334H10C10.2733 1.33334 10.5 1.56 10.5 1.83334C10.5 2.10667 10.2733 2.33334 10 2.33334Z" fill="#868686"/>
</svg>
