<svg xmlns="http://www.w3.org/2000/svg" width="17" height="16" viewBox="0 0 17 16" fill="none">
<path d="M9.16602 6.5H5.16602C4.89268 6.5 4.66602 6.27333 4.66602 6C4.66602 5.72667 4.89268 5.5 5.16602 5.5H9.16602C9.43935 5.5 9.66602 5.72667 9.66602 6C9.66602 6.27333 9.43935 6.5 9.16602 6.5Z" fill="white"/>
<path d="M13.1926 9.86662C12.1859 9.86662 11.3326 9.11995 11.2526 8.15995C11.1993 7.60662 11.3993 7.06663 11.7993 6.6733C12.1326 6.32663 12.6059 6.1333 13.1059 6.1333H14.4993C15.1593 6.1533 15.666 6.67327 15.666 7.31327V8.68665C15.666 9.32665 15.1593 9.84662 14.5193 9.86662H13.1926ZM14.4793 7.1333H13.1126C12.8793 7.1333 12.666 7.21996 12.5126 7.37996C12.3193 7.56663 12.226 7.81995 12.2526 8.07328C12.286 8.51328 12.7126 8.86662 13.1926 8.86662H14.4993C14.586 8.86662 14.666 8.78665 14.666 8.68665V7.31327C14.666 7.21327 14.5859 7.13997 14.4793 7.1333Z" fill="white"/>
<path d="M11.1673 14.1667H5.16732C2.87398 14.1667 1.33398 12.6267 1.33398 10.3333V5.66668C1.33398 3.61334 2.60063 2.12668 4.5673 1.88002C4.7473 1.85335 4.95398 1.83334 5.16732 1.83334H11.1673C11.3273 1.83334 11.534 1.84001 11.7473 1.87334C13.714 2.10001 15.0007 3.59334 15.0007 5.66668V6.63335C15.0007 6.90669 14.774 7.13335 14.5007 7.13335H13.114C12.8806 7.13335 12.6673 7.22002 12.514 7.38002L12.5073 7.38669C12.3207 7.56669 12.234 7.81333 12.254 8.06666C12.2873 8.50666 12.714 8.86 13.194 8.86H14.5007C14.774 8.86 15.0007 9.08666 15.0007 9.36V10.3267C15.0007 12.6267 13.4607 14.1667 11.1673 14.1667ZM5.16732 2.83334C5.00732 2.83334 4.85398 2.84667 4.70064 2.86667C3.23398 3.05334 2.33398 4.12001 2.33398 5.66668V10.3333C2.33398 12.0533 3.44732 13.1667 5.16732 13.1667H11.1673C12.8873 13.1667 14.0007 12.0533 14.0007 10.3333V9.86667H13.194C12.1873 9.86667 11.334 9.12 11.254 8.16C11.2007 7.61334 11.4007 7.06669 11.8007 6.68002C12.1473 6.32669 12.614 6.13335 13.114 6.13335H14.0007V5.66668C14.0007 4.10668 13.0873 3.03333 11.6073 2.86C11.4473 2.83333 11.3073 2.83334 11.1673 2.83334H5.16732V2.83334Z" fill="white"/>
</svg>