<svg width="16" height="16" viewBox="0 0 16 16" fill="none" xmlns="http://www.w3.org/2000/svg">
<path d="M9.9987 15.1668H5.9987C2.3787 15.1668 0.832031 13.6202 0.832031 10.0002V6.00016C0.832031 2.38016 2.3787 0.833496 5.9987 0.833496H9.9987C13.6187 0.833496 15.1654 2.38016 15.1654 6.00016V10.0002C15.1654 13.6202 13.6187 15.1668 9.9987 15.1668ZM5.9987 1.8335C2.92536 1.8335 1.83203 2.92683 1.83203 6.00016V10.0002C1.83203 13.0735 2.92536 14.1668 5.9987 14.1668H9.9987C13.072 14.1668 14.1654 13.0735 14.1654 10.0002V6.00016C14.1654 2.92683 13.072 1.8335 9.9987 1.8335H5.9987Z" fill="white"/>
<path d="M7.05297 10.3867C6.91964 10.3867 6.79297 10.3334 6.69964 10.2401L4.81297 8.3534C4.61964 8.16007 4.61964 7.84007 4.81297 7.64673C5.0063 7.4534 5.3263 7.4534 5.51964 7.64673L7.05297 9.18007L10.4796 5.7534C10.673 5.56007 10.993 5.56007 11.1863 5.7534C11.3796 5.94673 11.3796 6.26673 11.1863 6.46006L7.4063 10.2401C7.31297 10.3334 7.1863 10.3867 7.05297 10.3867Z" fill="white"/>
</svg>
