<svg width="24" height="24" viewBox="0 0 24 24" fill="none" xmlns="http://www.w3.org/2000/svg">
<path d="M15 22.75H9C3.57 22.75 1.25 20.43 1.25 15V9C1.25 3.57 3.57 1.25 9 1.25H15C20.43 1.25 22.75 3.57 22.75 9V15C22.75 20.43 20.43 22.75 15 22.75ZM9 2.75C4.39 2.75 2.75 4.39 2.75 9V15C2.75 19.61 4.39 21.25 9 21.25H15C19.61 21.25 21.25 19.61 21.25 15V9C21.25 4.39 19.61 2.75 15 2.75H9Z" fill="#404040"/>
<path d="M10.5814 15.5801C10.3814 15.5801 10.1914 15.5001 10.0514 15.3601L7.22141 12.5301C6.93141 12.2401 6.93141 11.7601 7.22141 11.4701C7.51141 11.1801 7.99141 11.1801 8.28141 11.4701L10.5814 13.7701L15.7214 8.6301C16.0114 8.3401 16.4914 8.3401 16.7814 8.6301C17.0714 8.9201 17.0714 9.4001 16.7814 9.6901L11.1114 15.3601C10.9714 15.5001 10.7814 15.5801 10.5814 15.5801Z" fill="#353535"/>
</svg>
