<svg width="32" height="15" viewBox="0 0 32 15" fill="none" xmlns="http://www.w3.org/2000/svg">
<path d="M2.98128 6.486C2.45861 7.58733 2.19728 8.53 2.19728 9.314C2.19728 10.1727 2.45395 10.8213 2.96728 11.26C3.48061 11.6987 4.21328 11.918 5.16528 11.918C5.88395 11.918 6.49528 11.7873 6.99928 11.526C7.50328 11.274 7.87661 10.9427 8.11928 10.532C8.37128 10.1213 8.49728 9.692 8.49728 9.244C8.49728 8.84267 8.41328 8.32 8.24528 7.676C8.07728 7.02267 7.89061 6.39733 7.68528 5.8L8.87528 5.212C9.15528 6.024 9.36061 6.75667 9.49128 7.41C9.63128 8.06333 9.70128 8.67467 9.70128 9.244C9.70128 9.96267 9.51928 10.644 9.15528 11.288C8.79128 11.932 8.26395 12.45 7.57328 12.842C6.89195 13.2433 6.08928 13.444 5.16528 13.444C4.28795 13.444 3.53195 13.2713 2.89728 12.926C2.26261 12.5807 1.77728 12.1047 1.44128 11.498C1.11461 10.9007 0.951281 10.2287 0.951281 9.482C0.951281 8.922 1.04461 8.32933 1.23128 7.704C1.41795 7.07867 1.63728 6.50467 1.88928 5.982L2.98128 6.486ZM5.47328 4.288L6.56528 5.38L5.47328 6.472L4.38128 5.38L5.47328 4.288ZM11.1887 9.916C11.2633 9.356 11.3007 8.376 11.3007 6.976C11.3007 5.69733 11.268 4.386 11.2027 3.042C11.1467 1.68867 11.0813 0.788 11.0067 0.339999L12.3367 0.0459996C12.402 0.512666 12.4673 1.432 12.5327 2.804C12.598 4.176 12.6307 5.50133 12.6307 6.78C12.6307 8.236 12.584 9.33267 12.4907 10.07L11.1887 9.916ZM13.9633 12.688C15.2793 12.408 16.292 12.0487 17.0013 11.61C17.72 11.1807 18.1633 10.6487 18.3313 10.014C17.314 10.014 16.488 9.93467 15.8533 9.776C15.2186 9.608 14.7753 9.26733 14.5233 8.754C14.3646 8.418 14.2853 8.04933 14.2853 7.648C14.2853 7.144 14.3926 6.64 14.6073 6.136C14.8313 5.632 15.1253 5.21667 15.4893 4.89C15.8626 4.56333 16.264 4.4 16.6933 4.4C17.188 4.4 17.636 4.596 18.0373 4.988C18.4386 5.37067 18.7606 5.87467 19.0033 6.5C19.2553 7.116 19.4186 7.76933 19.4933 8.46H20.0393L20.1233 9.23L20.0393 10H19.4653C19.288 11.0173 18.7606 11.876 17.8833 12.576C17.006 13.276 15.8533 13.766 14.4253 14.046L13.9633 12.688ZM15.5453 7.9C15.6853 8.11467 15.998 8.264 16.4833 8.348C16.978 8.42267 17.5986 8.46 18.3453 8.46C18.2426 7.732 18.0326 7.116 17.7153 6.612C17.4073 6.09867 17.034 5.842 16.5953 5.842C16.3993 5.842 16.208 5.926 16.0213 6.094C15.844 6.262 15.6993 6.472 15.5873 6.724C15.4846 6.96667 15.4333 7.20467 15.4333 7.438C15.4333 7.634 15.4706 7.788 15.5453 7.9ZM19.8577 8.46H19.9697C20.6511 8.46 21.1597 8.39 21.4957 8.25C21.8411 8.10067 22.0651 7.86267 22.1677 7.536C22.2051 7.41467 22.2237 7.25133 22.2237 7.046C22.2237 6.74733 22.1677 6.25267 22.0557 5.562L23.2177 5.324C23.3484 5.94933 23.4137 6.70533 23.4137 7.592C23.4604 7.86267 23.5864 8.07733 23.7917 8.236C24.0064 8.38533 24.2771 8.46 24.6037 8.46H24.7017L24.7857 9.23L24.7017 10H24.6037C24.2211 10 23.8711 9.90667 23.5537 9.72C23.2364 9.524 22.9797 9.26733 22.7837 8.95C22.5504 9.32333 22.2004 9.594 21.7337 9.762C21.2764 9.92067 20.6884 10 19.9697 10H19.8577V8.46ZM21.6777 2.048L22.7697 3.14L21.6777 4.232L20.5857 3.14L21.6777 2.048ZM24.5609 8.46H24.7289C25.1489 8.46 25.6855 8.45067 26.3389 8.432C25.9095 7.94667 25.6949 7.36333 25.6949 6.682C25.6949 6.16867 25.8302 5.688 26.1009 5.24C26.3715 4.792 26.7355 4.43733 27.1929 4.176C27.6502 3.90533 28.1402 3.77 28.6629 3.77C29.0829 3.77 29.4935 3.86333 29.8949 4.05C30.3055 4.22733 30.6835 4.46533 31.0289 4.764L30.4969 5.8C29.8715 5.464 29.2929 5.296 28.7609 5.296C28.4062 5.296 28.0842 5.366 27.7949 5.506C27.5149 5.63667 27.2955 5.80933 27.1369 6.024C26.9782 6.23867 26.8989 6.46733 26.8989 6.71C26.8989 6.98067 26.9969 7.23267 27.1929 7.466C27.3889 7.69933 27.6502 7.886 27.9769 8.026C28.3129 8.166 28.6815 8.23133 29.0829 8.222C29.9042 8.11 30.6275 7.93733 31.2529 7.704L31.5609 9.062C30.7955 9.37933 29.8762 9.61733 28.8029 9.776C27.7389 9.92533 26.3809 10 24.7289 10H24.5609V8.46Z" fill="#404040"/>
</svg>
